<svg height="580.72337" viewBox="0 0 888 580.72337" width="888" xmlns="http://www.w3.org/2000/svg"><path d="m304.55839 539.72318s10.80448 17.13628 6.94581 21.776 28.94959 4.75576 28.94959 4.75576-4.92815-24.9281-3.4777-30.665z" fill="#ffb8b8" transform="translate(-156 -159.63832)"/><circle cx="165.82548" cy="352.4157" fill="#2f2e41" r="33.87953"/><path d="m245.51 536.052v20.085l20.084-4.185-1.673-14.226z" fill="#ffb8b8"/><path d="m472.64248 699.03783 56.06912 9.20538-14.2265 20.92131s-39.33207-13.38964-49.3743-13.38964 7.53168-16.73705 7.53168-16.73705z" fill="#ffb8b8" transform="translate(-156 -159.63832)"/><path d="m345.44089 658.86891s41.84263-48.53745 55.23227-46.02689 19.24761 17.5739 19.24761 17.5739l7.53167 74.47988s-26.77928 2.51055-26.77928 0-5.02112-56.06912-5.02112-56.06912-39.33204 87.03266-60.25338 29.28984z" fill="#d0cde1" transform="translate(-156 -159.63832)"/><path d="m277.65584 691.50616s.83685 43.84262 25.94243 46.35318 52.7217-18.737 52.7217-18.737l45.19-21.64944s53.55856 28.34426 69.45876 20.81259c0 0 16.73705-17.57391 5.858-22.595s-.83685 0-.83685 0l-64.43765-33.4741s-12.55279-3.34741-34.31095 5.858-51.048 13.38964-51.048 13.38964z" fill="#d0cde1" transform="translate(-156 -159.63832)"/><circle cx="163.49846" cy="363.66048" fill="#ffb8b8" r="25.10558"/><path d="m355.48312 593.59441-1.6737 35.14781s.83685 46.02689-6.69482 49.3743c-3.80767 1.6904-11.45652 5.088-18.52793 8.80365-5.30562 2.77836-10.2849 5.72409-13.06326 8.25978a9.36818 9.36818 0 0 0 -1.88291 2.18417c-3.34741 5.858-25.10558 5.02112-30.1267.83686s-1.6737 5.02111-5.858 6.69482c-4.05039 1.62349-9.66564-11.649-6.22619-31.46569.1088-.66109.23435-1.33057.36822-2.00841 3.84117-19.20578-2.19255-65.20759-1.26366-82.98233a31.2726 31.2726 0 0 1 .42681-4.05034c2.51055-13.38964 34.54529-40.63755 40.53714-29.03041 7.381 14.32691 24.33568 1.23852 27.24791-5.28054 16.73705-.83685 22.595 19.24761 22.595 19.24761z" fill="#4f86f7" transform="translate(-156 -159.63832)"/><path d="m423.26818 708.24321s-13.38964 5.02111-17.57391 4.18426-8.36852 2.51056-8.36852 7.53167-5.02112 16.737 2.51056 17.57391 38.49521-.83686 45.19 1.6737c0 0 30.12669.83685 27.61614-11.71593s-15.06335-11.71594-15.06335-11.71594-34.31092-1.67371-34.31092-7.53167z" fill="#2f2e41" transform="translate(-156 -159.63832)"/><path d="m521.17992 710.75376s1.67371-5.02111 4.18427-5.02111 22.595 3.34741 25.10557 2.51056 31.8004-2.51056 26.77928 11.71593-21.75816 15.9002-21.75816 15.9002-30.12669-3.34741-34.311-2.51056-19.24761 0-16.73705-4.18426 18.4108-11.71594 16.73709-18.41076z" fill="#2f2e41" transform="translate(-156 -159.63832)"/><path d="m445.00463 590.55116 4.59111 18.93835a1.18275 1.18275 0 0 1 -.023.6392l-20.82624 65.08207a1.18288 1.18288 0 0 1 -2.30193-.22695l-2.88107-25.35342a1.18282 1.18282 0 0 1 .05063-.5l19.11622-58.667a1.18289 1.18289 0 0 1 2.27428.08775z" fill="#3f3d56" transform="translate(-156 -159.63832)"/><path d="m287.316 432.512 4.239 16.249-18.369 59.344-4.239-18.368z" fill="#fff"/><path d="m350.76762 680.45975c.70648 2.11943 73.47331-.70647 74.17979-1.41294a15.33535 15.33535 0 0 0 1.55421-2.8259c.66413-1.413 1.27169-2.8259 1.27169-2.8259l-2.8259-22.87563-72.06041-2.55744s-1.80154 19.38566-2.16892 28.259a21.19873 21.19873 0 0 0 .04954 4.23881z" fill="#3f3d56" transform="translate(-156 -159.63832)"/><path d="m259.763 493.975 1.413 19.782h-31.791v-19.782z" opacity=".1"/><path d="m218.788 500.334.19-.038-.897 8.515h-17.662v-8.477z" opacity=".1"/><path d="m350.76762 680.45975c.70648 2.11943 73.47331-.70647 74.17979-1.41294a15.33535 15.33535 0 0 0 1.55421-2.8259h-75.7835a21.19873 21.19873 0 0 0 .0495 4.23884z" opacity=".1" transform="translate(-156 -159.63832)"/><circle cx="171.43866" cy="315.37883" fill="#2f2e41" r="9.44184"/><g transform="translate(-156 -159.63832)"><path d="m324.59935 485.29456s-9.64664 16.04562-32.07831 22.0523-.18324 39.71527-.18324 39.71527-8.09034-12.25767 3.57888-25.23887 30.44802-21.85614 28.68267-36.5287z" fill="#2f2e41"/><path d="m328.58667 686.92017c-2.067 3.90814-4.49389 7.96685-4.90394 9.6071-.27618 1.113-3.339.46864-8.15932-1.34732-9.66563-3.65709-26.41944-12.03394-42.05184-20.41084a13.20191 13.20191 0 0 1 -2.04192-1.339c.1088-.66109.23435-1.33057.36822-2.00841 3.84117-19.20578-2.19255-65.20759-1.26366-82.98233l7.12163-2.37663 14.22649 13.38964v56.906s36.82151 20.08446 39.33207 21.75817c1.28041.85352-.4854 4.74491-2.62773 8.80362z" opacity=".1"/><path d="m359.66738 641.295 22.595 11.71594s13.38964-14.22649 21.75817-3.34741-24.2687 14.22647-24.2687 14.22647-28.453-6.69482-29.28984-15.9002 9.20537-6.6948 9.20537-6.6948z" fill="#ffb8b8"/><path d="m322.009 672.25855 13.38964 3.34741s15.06336-18.41076 30.96357-11.71596-20.08447 20.08446-20.08447 20.08446-19.2476 10.04223-26.77928 1.67371 2.51054-13.38962 2.51054-13.38962z" fill="#ffb8b8"/><path d="m351.29886 561.794c.83685.83686 10.04223 7.53168 10.04223 7.53168s2.51056 31.80039-.83685 38.49521-5.858 6.69482-3.34741 10.04223 5.858.83686 2.51055 6.69482-6.69482 5.02112-4.18426 7.53168 1.67371 3.34741 1.67371 3.34741l10.04223 8.36852s-6.16116 9.81321-13.95966 9.09087-14.49333-38.38071-14.49333-38.38071z" fill="#4f86f7"/><path d="m277.65584 581.87847-7.53168 2.51056s-20.08446 73.643 3.34741 86.19581 49.3743 25.10558 50.21116 21.75817 10.04227-16.73701 7.53167-18.41076-39.33207-21.75816-39.33207-21.75816v-56.906z" fill="#4f86f7"/></g><path d="m132.953 452.785-1.673 40.169 44.353 20.922-41.006-20.922z" opacity=".1"/><path d="m934.39972 293.39833v65.68a2.29614 2.29614 0 0 1 -2.29 2.29h-1.62989v342.15a35.702 35.702 0 0 1 -35.70007 35.7h-213.78996a35.69346 35.69346 0 0 1 -35.69006-35.7v-330.15h-1.18005a1.6176 1.6176 0 0 1 -1.62-1.61005v-37.37991a1.61971 1.61971 0 0 1 1.62-1.62006h1.18005v-14.07995h-1.19006a1.69647 1.69647 0 0 1 -1.68994-1.7v-36.87a1.69432 1.69432 0 0 1 1.68994-1.69h1.19006v-19.22h-1.21008a1.498 1.498 0 0 1 -1.5-1.5v-20.12a1.5066 1.5066 0 0 1 1.5-1.51h1.21008v-40.74a35.69136 35.69136 0 0 1 35.69006-35.69h213.78992a35.69991 35.69991 0 0 1 35.70007 35.69v95.78h1.62989a2.29609 2.29609 0 0 1 2.29004 2.28997z" fill="#3f3d56" transform="translate(-156 -159.63832)"/><rect fill="#e6e8ec" height="8.08642" rx="2.54189" width="39.82343" x="604.90335" y="18.3068"/><circle cx="655.33477" cy="22.35" fill="#e6e8ec" r="4.58665"/><path d="m913.38473 202.38814v504.09a22.65045 22.65045 0 0 1 -22.65 22.64h-204.65a22.61062 22.61062 0 0 1 -22.65-22.64v-504.09a22.64906 22.64906 0 0 1 22.65-22.65h30.63v3.93a18.65015 18.65015 0 0 0 18.65 18.65h104.08a18.6501 18.6501 0 0 0 18.65-18.65v-3.93h32.64a22.64266 22.64266 0 0 1 22.65 22.65z" fill="#fff" transform="translate(-156 -159.63832)"/><path d="m528.82677 351.95881h208v27h-208z" fill="#e6e6e6"/><path d="m528.82677 399.95881h208v27h-208z" fill="#e6e6e6"/><path d="m528.82677 447.95881h208v27h-208z" fill="#e6e6e6"/><circle cx="713.82677" cy="90.95881" fill="#4f86f7" r="20"/><path d="m528.40973 157.95881h208v138h-208z" fill="#e6e6e6"/><path d="m767.2354 395.188c6.07317 22.45006 26.87512 36.35394 26.87512 36.35394s10.95541-22.49485 4.88225-44.94491-26.87512-36.35394-26.87512-36.35394-10.95541 22.49491-4.88225 44.94491z" fill="#3f3d56" transform="translate(-156 -159.63832)"/><path d="m776.15949 390.36329c16.66485 16.22255 18.70034 41.1604 18.70034 41.1604s-24.98357-1.36412-41.64842-17.58667-18.70033-41.1604-18.70033-41.1604 24.98356 1.36411 41.64841 17.58667z" fill="#4f86f7" transform="translate(-156 -159.63832)"/><path d="m822.48425 395.188c-6.07317 22.45006-26.87512 36.35394-26.87512 36.35394s-10.95541-22.49485-4.88225-44.94491 26.87512-36.35389 26.87512-36.35389 10.95541 22.49486 4.88225 44.94486z" fill="#3f3d56" transform="translate(-156 -159.63832)"/><path d="m813.56016 390.36329c-16.66484 16.22255-18.70033 41.1604-18.70033 41.1604s24.98356-1.36412 41.64841-17.58667 18.70033-41.1604 18.70033-41.1604-24.98357 1.36411-41.64841 17.58667z" fill="#4f86f7" transform="translate(-156 -159.63832)"/></svg>