<svg height="512.801" viewBox="0 0 931.56299 512.801" width="931.56299" xmlns="http://www.w3.org/2000/svg"><circle cx="347.12667" cy="325.96388" fill="#4f86f7" r="26.43632"/><path d="m344.607 337.123-7.912-10.173 4.601-3.579 3.747 4.817 12.656-13.361 4.233 4.01z" fill="#fff"/><path d="m986.01772 278.199h-393v-84h393z" fill="#fff" transform="translate(-133.7185 -194.199)"/><circle cx="510.22347" cy="42" fill="#4f86f7" r="21.33847"/><path d="m693.22364 221.97335a3.55641 3.55641 0 0 0 0 7.11282h259.65936a3.55642 3.55642 0 0 0 0-7.11282z" fill="#3f3d56" transform="translate(-133.7185 -194.199)"/><path d="m693.22364 243.31177a3.55641 3.55641 0 0 0 -.015 7.11281h164.15936a3.55641 3.55641 0 1 0 0-7.11281z" fill="#3f3d56" transform="translate(-133.7185 -194.199)"/><path d="m986.01772 278.199h-393v-84h393zm-387-6h381v-72h-381z" fill="#ccc" transform="translate(-133.7185 -194.199)"/><path d="m986.01772 383.199h-393v-84h393z" fill="#fff" transform="translate(-133.7185 -194.199)"/><circle cx="510.22347" cy="147" fill="#e6e6e6" r="21.33847"/><path d="m693.22364 326.97335a3.55641 3.55641 0 0 0 0 7.11282h259.65936a3.55642 3.55642 0 0 0 0-7.11282z" fill="#e6e6e6" transform="translate(-133.7185 -194.199)"/><path d="m693.22364 348.31177a3.55641 3.55641 0 0 0 -.015 7.11281h164.15936a3.55641 3.55641 0 1 0 0-7.11281z" fill="#e6e6e6" transform="translate(-133.7185 -194.199)"/><path d="m986.01772 383.199h-393v-84h393zm-387-6h381v-72h-381z" fill="#e6e6e6" transform="translate(-133.7185 -194.199)"/><path d="m986.01772 488.199h-393v-84h393z" fill="#fff" transform="translate(-133.7185 -194.199)"/><circle cx="510.22347" cy="252" fill="#e6e6e6" r="21.33847"/><path d="m693.22364 431.97335a3.55641 3.55641 0 0 0 0 7.11282h259.65936a3.55642 3.55642 0 0 0 0-7.11282z" fill="#e6e6e6" transform="translate(-133.7185 -194.199)"/><path d="m693.22364 453.31177a3.55641 3.55641 0 0 0 -.015 7.11281h164.15936a3.55641 3.55641 0 1 0 0-7.11281z" fill="#e6e6e6" transform="translate(-133.7185 -194.199)"/><path d="m986.01772 488.199h-393v-84h393zm-387-6h381v-72h-381z" fill="#e6e6e6" transform="translate(-133.7185 -194.199)"/><path d="m334.47656 508.12823a9.97931 9.97931 0 0 1 3.22535-14.95832l-2.08391-22.70907 13.49137-4.63223 2.49246 32.11093a10.03341 10.03341 0 0 1 -17.12527 10.18869z" fill="#ffb8b8" transform="translate(-133.7185 -194.199)"/><path d="m348.96005 377.79135s9.25835-19.42981 17.48513-12.59513-11.2788 64.28457-11.2788 64.28457l-2.96666 55.77082-15.63538-1.5628-4.42059-54.336z" fill="#ccc" transform="translate(-133.7185 -194.199)"/><path d="m91.056 471.047 11.606 9.395 41.761-40.296-17.129-13.866z" fill="#ffb8b8"/><path d="m224.88113 659.06021 22.85715 18.50239.00092.00075a18.74161 18.74161 0 0 1 2.77431 26.35741l-.38318.47334-37.42364-30.29388z" fill="#2f2e41" transform="translate(-133.7185 -194.199)"/><path d="m252.357 497.127h14.932l7.104-57.597-22.039.001z" fill="#ffb8b8"/><g transform="translate(-133.7185 -194.199)"><path d="m382.26623 686.45109 29.40727-.00118h.00119a18.74161 18.74161 0 0 1 18.74062 18.74031v.609l-48.14818.00178z" fill="#2f2e41"/><path d="m412.27729 421.309s28.01383 34.1038 21.92386 68.2076-10.96193 59.68164-10.96193 59.68164l-9.74394 76.73354s3.654 20.89769-1.218 26.28275c0 0 7.308 12.693-6.09 17.565s-20.627-1.68313-20.627-1.68313-9.82287-14.15077-3.7329-17.80475l2.56545-150.58774-97.56883 127.44589s-1.79342 15.50264-14.29463 15.66827l-14.93719 11.12757-17.0519-9.744 8.52595-10.96193s-4.872-12.17993 6.09-14.61591l63.33562-82.82351 15.83391-42.62975s8.52595-32.8858 31.66781-46.28372v-14.25622z" fill="#2f2e41"/><path d="m364.16657 362.23637a23.25794 23.25794 0 0 1 30.656-4.32849l1.01179.67453a89.77768 89.77768 0 0 1 21.01644 43.27059l4.56143 24.937-57.24566 12.4005-13.42025-46.284a26.14871 26.14871 0 0 1 13.42023-30.67011z" fill="#ccc"/><path d="m458.21768 513.43011a11.42107 11.42107 0 0 1 -6.51527-16.25582l-16.51369-20.21048 9.83428-13.03081 22.91966 28.86864a11.483 11.483 0 0 1 -9.725 20.62849z" fill="#ffb8b8"/><path d="m388.52643 380.50627s-3.654-24.35986 8.526-23.14187 30.44981 68.2076 30.44981 68.2076l32.88576 54.80967-15.83391 8.526-38.97576-48.71971z" fill="#ccc"/><path d="m410.83066 344.89318h-58a4.50508 4.50508 0 0 1 -4.5-4.5v-25a33.5 33.5 0 0 1 67 0v25a4.50508 4.50508 0 0 1 -4.5 4.5z" fill="#2f2e41"/></g><circle cx="254.99606" cy="125.55118" fill="#ffb8b8" r="24.56103"/><path d="m423.256 317.89318h-30.90968l-.317-5.0918-1.58477 5.0918h-4.75942l-.62812-10.0918-3.141 10.0918h-9.20925v-.5c0-14.61231 10.36059-26.5 23.09557-26.5h4.35791c12.735 0 23.09578 11.88769 23.09578 26.5z" fill="#2f2e41" transform="translate(-133.7185 -194.199)"/><path d="m393.62553 349.55993a7.43613 7.43613 0 0 1 -1.12823-.087l-36.79061-5.66667v-38.31986a14.75984 14.75984 0 0 1 14.75984-14.75984h25.73955l-1.00268 1.02053c-13.9504 14.20291-3.4404 37.23312 4.06605 49.69691a4.9119 4.9119 0 0 1 -.49909 5.82127 6.68354 6.68354 0 0 1 -5.14483 2.29466z" fill="#2f2e41" transform="translate(-133.7185 -194.199)"/><circle cx="905.12667" cy="41.96388" fill="#4f86f7" r="26.43632"/><path d="m902.607 53.123-7.912-10.173 4.601-3.579 3.747 4.817 12.656-13.361 4.233 4.01z" fill="#fff"/></svg>